<svg xmlns="http://www.w3.org/2000/svg" viewBox="0 0 24 24" width="24" height="24"><path d="M3.4,21.9v-1.1c0-2.4,0.7-4.4,2.2-5.8C6.2,14.2,7,13.7,8,13.2l0.2-0.1L8,13.1c-1.6-1.3-2.4-3.3-2.2-5.4 c0.3-3.2,3-5.6,6.2-5.6c0.2,0,0.4,0,0.6,0c1.7,0.2,3.1,1,4.2,2.2s1.5,2.9,1.4,4.5C18,10.5,17.2,12,16,13l-0.1,0.1l0.2,0.1 c1,0.4,1.8,1,2.5,1.7c1.4,1.5,2.1,3.5,2.1,5.8v1.1L3.4,21.9L3.4,21.9z M12,14.5c-2.4,0-4.2,0.6-5.4,1.9c-0.7,0.7-1.2,1.9-1.5,3.5 l0,0.1h13.8l0-0.1c-0.3-1.7-0.7-2.8-1.4-3.6C16.2,15.1,14.4,14.5,12,14.5z M12,3.9c-2.3,0-4.2,1.7-4.4,4c-0.1,1.2,0.2,2.3,1,3.2 s1.8,1.5,3,1.6c0.2,0,0.3,0,0.4,0c2.3,0,4.2-1.7,4.4-4c0.1-1.2-0.2-2.3-1-3.2c-0.8-0.9-1.8-1.5-3-1.6C12.3,3.9,12.1,3.9,12,3.9z" fill="black" fill-rule="evenodd"></path></svg>